<?xml version="1.0" encoding="UTF-8" standalone="no"?>
<!-- Created with Inkscape (http://www.inkscape.org/) -->

<svg
   width="210mm"
   height="297mm"
   viewBox="0 0 210 297"
   version="1.1"
   id="svg5"
   inkscape:version="1.2.2 (732a01da63, 2022-12-09)"
   sodipodi:docname="building1.svg"
   inkscape:export-filename="..\Assets\wing.png"
   inkscape:export-xdpi="96"
   inkscape:export-ydpi="96"
   xmlns:inkscape="http://www.inkscape.org/namespaces/inkscape"
   xmlns:sodipodi="http://sodipodi.sourceforge.net/DTD/sodipodi-0.dtd"
   xmlns="http://www.w3.org/2000/svg"
   xmlns:svg="http://www.w3.org/2000/svg">
  <sodipodi:namedview
     id="namedview7"
     pagecolor="#ffffff"
     bordercolor="#000000"
     borderopacity="0.25"
     inkscape:showpageshadow="2"
     inkscape:pageopacity="0.0"
     inkscape:pagecheckerboard="0"
     inkscape:deskcolor="#d1d1d1"
     inkscape:document-units="mm"
     showgrid="false"
     inkscape:zoom="1.0544998"
     inkscape:cx="445.70896"
     inkscape:cy="756.75692"
     inkscape:window-width="2560"
     inkscape:window-height="1017"
     inkscape:window-x="-8"
     inkscape:window-y="-8"
     inkscape:window-maximized="1"
     inkscape:current-layer="layer1" />
  <defs
     id="defs2" />
  <g
     inkscape:label="Layer 1"
     inkscape:groupmode="layer"
     id="layer1">
    <rect
       style="fill:#808080;stroke-width:0.264583"
       id="rect467"
       width="53.580643"
       height="140.16129"
       x="47.19355"
       y="136.96774" />
    <path
       sodipodi:type="star"
       style="fill:#ffffff;stroke-width:0.264583"
       id="path599"
       inkscape:flatsided="true"
       sodipodi:sides="4"
       sodipodi:cx="60.056452"
       sodipodi:cy="154.88709"
       sodipodi:r1="10.036354"
       sodipodi:r2="5.3233199"
       sodipodi:arg1="0.78539816"
       sodipodi:arg2="1.5707963"
       inkscape:rounded="0.05"
       inkscape:randomized="0"
       d="m 67.153228,161.98386 c -0.501818,0.50182 -13.691731,0.50182 -14.193548,0 -0.501818,-0.50182 -0.501818,-13.69173 0,-14.19355 0.501817,-0.50182 13.69173,-0.50182 14.193548,0 0.501817,0.50182 0.501817,13.69173 0,14.19355 z"
       inkscape:transform-center-y="-1.8686309e-06" />
    <path
       sodipodi:type="star"
       style="fill:#ffffff;stroke-width:0.264583"
       id="path599-3"
       inkscape:flatsided="true"
       sodipodi:sides="4"
       sodipodi:cx="60.056454"
       sodipodi:cy="154.88708"
       sodipodi:r1="10.036354"
       sodipodi:r2="5.3233199"
       sodipodi:arg1="0.78539816"
       sodipodi:arg2="1.5707963"
       inkscape:rounded="0.05"
       inkscape:randomized="0"
       d="m 67.153228,161.98386 c -0.501818,0.50182 -13.691731,0.50182 -14.193548,0 -0.501818,-0.50182 -0.501818,-13.69173 0,-14.19355 0.501817,-0.50182 13.69173,-0.50182 14.193548,0 0.501817,0.50182 0.501817,13.69173 0,14.19355 z"
       inkscape:transform-center-y="-1.8686309e-06"
       transform="translate(0.08870764,21.645173)" />
    <path
       sodipodi:type="star"
       style="fill:#ffffff;stroke-width:0.264583"
       id="path599-0"
       inkscape:flatsided="true"
       sodipodi:sides="4"
       sodipodi:cx="60.056454"
       sodipodi:cy="154.88708"
       sodipodi:r1="10.036354"
       sodipodi:r2="5.3233199"
       sodipodi:arg1="0.78539816"
       sodipodi:arg2="1.5707963"
       inkscape:rounded="0.05"
       inkscape:randomized="0"
       d="m 67.153228,161.98386 c -0.501818,0.50182 -13.691731,0.50182 -14.193548,0 -0.501818,-0.50182 -0.501818,-13.69173 0,-14.19355 0.501817,-0.50182 13.69173,-0.50182 14.193548,0 0.501817,0.50182 0.501817,13.69173 0,14.19355 z"
       inkscape:transform-center-y="-1.8686309e-06"
       transform="translate(27.588708,21.290335)" />
    <path
       sodipodi:type="star"
       style="fill:#ffffff;stroke-width:0.264583"
       id="path599-7"
       inkscape:flatsided="true"
       sodipodi:sides="4"
       sodipodi:cx="60.056454"
       sodipodi:cy="154.88708"
       sodipodi:r1="10.036354"
       sodipodi:r2="5.3233199"
       sodipodi:arg1="0.78539816"
       sodipodi:arg2="1.5707963"
       inkscape:rounded="0.05"
       inkscape:randomized="0"
       d="m 67.153228,161.98386 c -0.501818,0.50182 -13.691731,0.50182 -14.193548,0 -0.501818,-0.50182 -0.501818,-13.69173 0,-14.19355 0.501817,-0.50182 13.69173,-0.50182 14.193548,0 0.501817,0.50182 0.501817,13.69173 0,14.19355 z"
       inkscape:transform-center-y="-1.8686309e-06"
       transform="translate(0.97580424,60.85485)" />
    <path
       sodipodi:type="star"
       style="fill:#ffffff;stroke-width:0.264583"
       id="path599-7-0"
       inkscape:flatsided="true"
       sodipodi:sides="4"
       sodipodi:cx="60.056454"
       sodipodi:cy="154.88708"
       sodipodi:r1="10.036354"
       sodipodi:r2="5.3233199"
       sodipodi:arg1="0.78539816"
       sodipodi:arg2="1.5707963"
       inkscape:rounded="0.05"
       inkscape:randomized="0"
       d="m 67.153228,161.98386 c -0.501818,0.50182 -13.691731,0.50182 -14.193548,0 -0.501818,-0.50182 -0.501818,-13.69173 0,-14.19355 0.501817,-0.50182 13.69173,-0.50182 14.193548,0 0.501817,0.50182 0.501817,13.69173 0,14.19355 z"
       inkscape:transform-center-y="-1.8686309e-06"
       transform="translate(1.6671253,81.970877)" />
    <path
       sodipodi:type="star"
       style="fill:#ffffff;stroke-width:0.264583"
       id="path599-7-4"
       inkscape:flatsided="true"
       sodipodi:sides="4"
       sodipodi:cx="60.056454"
       sodipodi:cy="154.88708"
       sodipodi:r1="10.036354"
       sodipodi:r2="5.3233199"
       sodipodi:arg1="0.78539816"
       sodipodi:arg2="1.5707963"
       inkscape:rounded="0.05"
       inkscape:randomized="0"
       d="m 67.153228,161.98386 c -0.501818,0.50182 -13.691731,0.50182 -14.193548,0 -0.501818,-0.50182 -0.501818,-13.69173 0,-14.19355 0.501817,-0.50182 13.69173,-0.50182 14.193548,0 0.501817,0.50182 0.501817,13.69173 0,14.19355 z"
       inkscape:transform-center-y="-1.8686309e-06"
       transform="translate(26.507102,81.970876)" />
    <path
       sodipodi:type="star"
       style="fill:#ffffff;stroke-width:0.264583"
       id="path599-8"
       inkscape:flatsided="true"
       sodipodi:sides="4"
       sodipodi:cx="60.056454"
       sodipodi:cy="154.88708"
       sodipodi:r1="10.036354"
       sodipodi:r2="5.3233199"
       sodipodi:arg1="0.78539816"
       sodipodi:arg2="1.5707963"
       inkscape:rounded="0.05"
       inkscape:randomized="0"
       d="m 67.153228,161.98386 c -0.501818,0.50182 -13.691731,0.50182 -14.193548,0 -0.501818,-0.50182 -0.501818,-13.69173 0,-14.19355 0.501817,-0.50182 13.69173,-0.50182 14.193548,0 0.501817,0.50182 0.501817,13.69173 0,14.19355 z"
       inkscape:transform-center-y="-1.8686309e-06"
       transform="translate(26.87903,60.854851)" />
    <path
       sodipodi:type="star"
       style="fill:#ffffff;stroke-width:0.264583"
       id="path599-4"
       inkscape:flatsided="true"
       sodipodi:sides="4"
       sodipodi:cx="60.056454"
       sodipodi:cy="154.88708"
       sodipodi:r1="10.036354"
       sodipodi:r2="5.3233199"
       sodipodi:arg1="0.78539816"
       sodipodi:arg2="1.5707963"
       inkscape:rounded="0.05"
       inkscape:randomized="0"
       d="m 67.153228,161.98386 c -0.501818,0.50182 -13.691731,0.50182 -14.193548,0 -0.501818,-0.50182 -0.501818,-13.69173 0,-14.19355 0.501817,-0.50182 13.69173,-0.50182 14.193548,0 0.501817,0.50182 0.501817,13.69173 0,14.19355 z"
       inkscape:transform-center-y="-1.8686309e-06"
       transform="translate(27.411288,40.629044)" />
    <path
       sodipodi:type="star"
       style="fill:#ffffff;stroke-width:0.264583"
       id="path599-5"
       inkscape:flatsided="true"
       sodipodi:sides="4"
       sodipodi:cx="60.056454"
       sodipodi:cy="154.88708"
       sodipodi:r1="10.036354"
       sodipodi:r2="5.3233199"
       sodipodi:arg1="0.78539816"
       sodipodi:arg2="1.5707963"
       inkscape:rounded="0.05"
       inkscape:randomized="0"
       d="m 67.153228,161.98386 c -0.501818,0.50182 -13.691731,0.50182 -14.193548,0 -0.501818,-0.50182 -0.501818,-13.69173 0,-14.19355 0.501817,-0.50182 13.69173,-0.50182 14.193548,0 0.501817,0.50182 0.501817,13.69173 0,14.19355 z"
       inkscape:transform-center-y="-1.8686309e-06"
       transform="translate(1.1532241,40.451625)" />
    <path
       sodipodi:type="star"
       style="fill:#ffffff;stroke-width:0.264583"
       id="path599-38"
       inkscape:flatsided="true"
       sodipodi:sides="4"
       sodipodi:cx="60.056454"
       sodipodi:cy="154.88708"
       sodipodi:r1="10.036354"
       sodipodi:r2="5.3233199"
       sodipodi:arg1="0.78539816"
       sodipodi:arg2="1.5707963"
       inkscape:rounded="0.05"
       inkscape:randomized="0"
       d="m 67.153228,161.98386 c -0.501818,0.50182 -13.691731,0.50182 -14.193548,0 -0.501818,-0.50182 -0.501818,-13.69173 0,-14.19355 0.501817,-0.50182 13.69173,-0.50182 14.193548,0 0.501817,0.50182 0.501817,13.69173 0,14.19355 z"
       inkscape:transform-center-y="-1.8686309e-06"
       transform="translate(27.233868,0.35485057)" />
    <rect
       style="fill:#1a1a1a;stroke-width:0.264583"
       id="rect813"
       width="45.951611"
       height="1.7741935"
       x="50.209679"
       y="252.1129" />
    <rect
       style="fill:#784421;stroke-width:0.264583"
       id="rect819"
       width="9.5806446"
       height="14.725806"
       x="69.19355"
       y="262.2258" />
    <rect
       style="fill:#000000;stroke-width:0.264583"
       id="rect821"
       width="1.7741935"
       height="1.5967742"
       x="75.758064"
       y="269.85483" />
  </g>
</svg>
